<?xml version="1.0" standalone="no"?>
<!DOCTYPE svg PUBLIC "-//W3C//DTD SVG 20010904//EN"
 "http://www.w3.org/TR/2001/REC-SVG-20010904/DTD/svg10.dtd">
<svg version="1.0" xmlns="http://www.w3.org/2000/svg"
 width="539.000000pt" height="463.000000pt" viewBox="0 0 539.000000 463.000000"
 preserveAspectRatio="xMidYMid meet">

<g transform="translate(0.000000,463.000000) scale(0.100000,-0.100000)"
fill="#000000" stroke="none">
<path d="M3060 4165 c-95 -20 -226 -63 -295 -97 -82 -41 -115 -74 -115 -113 0
-28 -8 -38 -62 -75 -120 -84 -193 -159 -271 -282 -66 -102 -106 -229 -107
-336 0 -37 -4 -54 -15 -58 -17 -7 -20 -68 -6 -108 8 -20 5 -29 -15 -51 -32
-35 -30 -60 6 -87 26 -19 30 -28 30 -72 1 -145 21 -209 91 -300 27 -35 112
-76 156 -76 26 0 45 -12 95 -61 68 -67 169 -142 211 -158 39 -15 33 -34 -20
-75 -27 -19 -62 -46 -78 -60 -27 -22 -44 -26 -180 -36 -83 -6 -211 -12 -286
-14 -74 -1 -140 -6 -146 -9 -27 -17 -36 27 -45 221 -5 108 -10 253 -10 322 -1
69 -5 128 -10 131 -14 9 -17 45 -19 269 -1 113 -6 212 -10 220 -9 16 -34 317
-45 520 -3 69 -10 132 -15 141 -4 9 -23 23 -41 31 -29 13 -73 14 -339 4 -327
-12 -319 -10 -360 -67 -16 -23 -22 -54 -29 -171 -13 -195 -39 -427 -52 -463
-6 -16 -12 -99 -14 -182 -3 -84 -12 -188 -20 -230 -9 -43 -16 -100 -16 -128 0
-27 -5 -106 -10 -175 -14 -174 -29 -418 -27 -460 4 -148 -2 -465 -11 -555 -14
-132 -8 -762 8 -878 6 -43 18 -89 27 -103 l16 -24 461 2 462 3 22 46 c22 43
23 59 25 265 1 120 6 295 11 389 6 112 5 176 -1 190 -12 23 -20 183 -11 235
l5 35 100 1 c118 2 180 13 334 61 67 20 117 31 122 26 9 -9 -9 -249 -30 -398
-5 -38 -15 -117 -21 -173 -12 -101 -12 -105 9 -125 15 -15 38 -23 79 -27 l57
-5 8 -40 c5 -22 18 -76 30 -120 21 -82 22 -97 11 -220 -5 -62 -3 -73 15 -92
65 -69 358 -72 440 -5 13 10 28 42 37 77 25 100 70 205 88 205 19 0 74 -118
87 -189 13 -68 30 -92 89 -119 51 -24 302 -24 345 -1 67 37 81 76 59 169 -16
64 -16 67 9 150 14 47 28 101 32 120 13 70 13 70 65 70 37 0 55 6 78 25 25 21
40 25 98 25 103 1 184 42 221 114 21 41 9 236 -20 326 -69 216 -274 488 -499
663 -37 28 -68 57 -67 62 0 6 34 30 75 55 42 25 110 78 152 118 54 51 83 72
101 72 74 0 155 50 185 115 9 19 21 35 25 35 17 0 32 66 38 165 4 79 10 104
25 121 27 31 58 118 58 165 0 34 -6 47 -34 73 -28 27 -34 42 -40 92 -28 239
-160 453 -363 591 -79 54 -83 58 -83 94 0 30 -6 42 -30 59 -52 37 -194 99
-291 126 -84 24 -115 27 -284 30 -134 2 -209 -1 -255 -11z m295 -79 c104 -22
171 -72 205 -151 48 -112 6 -234 -102 -298 -68 -40 -123 -52 -207 -44 -96 8
-196 71 -236 147 -21 42 -28 107 -15 159 20 85 122 169 231 190 60 12 56 12
124 -3z m-1625 -196 c0 -5 -8 -10 -17 -10 -15 0 -16 2 -3 10 19 12 20 12 20 0z
m-320 -126 c0 -8 3 -14 8 -14 4 0 18 -17 32 -37 30 -44 98 -119 103 -112 29
39 77 111 77 117 1 4 11 20 24 35 22 27 25 28 65 17 56 -15 54 -20 -64 -192
-29 -42 -50 -47 -95 -23 -18 9 -30 11 -30 5 0 -6 -11 -16 -25 -22 -22 -10 -28
-7 -60 26 -19 21 -35 42 -35 47 0 5 -4 9 -8 9 -4 0 -24 25 -43 55 -18 30 -37
55 -41 55 -5 0 -8 6 -8 14 0 16 68 46 87 39 7 -3 13 -11 13 -19z m-173 -60
c-3 -3 -12 -4 -19 -1 -8 3 -5 6 6 6 11 1 17 -2 13 -5z m18 -104 c14 -15 17
-31 13 -69 -7 -67 -21 -83 -72 -79 l-41 3 2 70 c1 53 5 72 19 82 26 19 58 16
79 -7z m625 0 c6 -11 12 -43 13 -72 2 -49 0 -53 -25 -62 -18 -6 -38 -6 -55 0
-26 9 -28 14 -31 73 -3 71 3 81 55 81 22 0 36 -6 43 -20z m830 -79 c15 -30 12
-59 -7 -65 -10 -2 -56 -12 -103 -21 -47 -8 -93 -17 -103 -19 -12 -3 -22 6 -32
31 -9 20 -13 38 -10 41 4 5 206 49 232 51 7 1 17 -8 23 -18z m1285 -5 l110
-22 -1 -37 c-1 -21 -3 -39 -5 -41 -5 -5 -239 41 -246 48 -10 9 8 76 20 76 7
-1 62 -11 122 -24z m-585 -41 l0 -46 -122 3 -123 3 -3 43 -3 42 125 0 126 0 0
-45z m-1556 -111 c9 -3 16 -15 16 -25 0 -14 -7 -19 -25 -19 -29 0 -45 28 -24
41 17 11 14 10 33 3z m-644 -29 c0 -8 -9 -15 -20 -15 -20 0 -26 11 -13 23 12
13 33 7 33 -8z m370 -135 l0 -30 124 0 c112 0 128 -2 160 -22 31 -20 35 -28
36 -65 0 -32 -5 -45 -20 -53 -25 -13 -28 -91 -5 -110 20 -17 19 -56 -1 -64
-18 -7 -64 18 -64 34 0 5 5 12 10 15 29 18 -1 25 -109 25 -127 0 -151 -4 -151
-26 0 -10 -15 -14 -55 -14 -44 0 -56 4 -65 20 -10 18 -20 20 -143 17 l-132 -2
-3 48 c-2 32 -7 47 -17 47 -21 0 -31 25 -27 69 4 35 8 40 45 54 29 11 81 16
165 17 138 1 150 3 154 33 3 21 30 34 76 36 18 1 22 -4 22 -29z m1791 -177
c12 -10 35 -31 50 -47 49 -50 119 -32 119 31 0 20 5 23 39 23 43 0 111 -25
111 -40 0 -6 -7 -10 -15 -10 -23 0 -47 -44 -39 -73 8 -32 79 -63 121 -53 50
12 112 47 118 66 3 10 12 24 20 30 12 10 19 2 40 -47 14 -32 30 -66 35 -75 6
-10 10 -51 10 -93 0 -65 2 -76 21 -86 12 -6 34 -8 50 -5 16 3 29 4 29 1 0 -2
-11 -21 -25 -42 -121 -183 -279 -286 -521 -339 -113 -25 -379 -25 -493 0 -91
20 -221 66 -283 101 -82 47 -181 147 -252 257 l-17 26 38 -5 c50 -7 78 21 70
69 -10 68 40 237 71 238 7 0 17 -11 22 -24 21 -56 176 -91 221 -51 43 39 43
53 4 89 l-35 33 38 17 c21 10 54 16 72 14 28 -2 35 -8 41 -32 5 -16 14 -33 21
-37 20 -13 76 -10 85 4 4 6 25 27 46 45 34 29 44 32 102 32 47 0 71 -5 86 -17z
m-2181 -117 c0 -2 3 -11 6 -19 6 -16 -20 -47 -41 -47 -22 0 -44 28 -38 50 4
15 14 20 39 20 19 0 34 -2 34 -4z m171 -23 c8 -23 7 -30 -8 -41 -10 -7 -27
-11 -38 -10 -16 2 -19 9 -17 33 6 50 46 62 63 18z m344 -8 c0 -24 -5 -31 -23
-33 -28 -4 -52 14 -52 38 0 21 15 30 50 27 21 -2 25 -7 25 -32z m-170 -327
c-4 -112 -8 -204 -10 -206 -2 -2 -28 -6 -59 -9 l-56 -6 0 162 c0 89 5 182 11
206 11 42 13 44 53 48 22 2 47 4 55 5 11 2 12 -31 6 -200z m845 167 c0 -8 11
-40 25 -71 14 -32 23 -59 20 -62 -9 -9 -59 33 -79 67 -16 28 -17 36 -6 57 15
26 40 33 40 9z m1844 -1 c17 -43 -7 -103 -49 -122 -14 -7 -28 -12 -30 -12 -10
0 56 149 66 150 4 0 10 -7 13 -16z m-3039 -54 c9 -10 20 -38 22 -62 9 -79 -60
-126 -117 -80 -19 16 -21 23 -15 79 7 57 9 61 39 71 45 15 51 14 71 -8z m697
9 c43 -11 51 -29 46 -104 -3 -44 -6 -51 -31 -59 -22 -8 -32 -6 -55 11 -24 18
-27 27 -30 92 -3 79 -2 81 70 60z m-521 -91 c8 -14 10 -49 5 -104 -8 -108 -11
-116 -50 -112 l-31 3 -3 105 c-2 90 0 107 15 117 25 19 51 16 64 -9z m338 13
c15 -10 29 -81 30 -152 1 -52 -15 -72 -51 -67 -28 4 -36 30 -37 129 -1 90 16
116 58 90z m236 -197 c14 -33 13 -39 -2 -65 -24 -40 -55 -46 -93 -19 -59 42
-32 120 41 120 35 0 40 -4 54 -36z m-766 2 c17 -20 10 -77 -11 -90 -28 -17
-72 4 -76 38 -6 51 57 89 87 52z m8 -202 c10 -26 -22 -48 -74 -48 -43 -1 -48
1 -45 19 5 29 31 45 74 45 26 0 41 -5 45 -16z m1301 -159 c7 -14 12 -32 12
-40 0 -7 13 -43 29 -79 17 -36 26 -68 21 -71 -5 -3 -34 -14 -64 -25 l-55 -19
-22 67 c-12 37 -33 91 -46 120 -12 29 -23 54 -23 57 0 2 24 6 53 8 28 2 59 4
68 5 9 1 21 -9 27 -23z m-958 -67 c-1 -88 -17 -314 -26 -340 -5 -16 -15 -18
-72 -16 l-67 3 2 88 c1 76 -1 88 -14 82 -9 -3 -26 2 -39 10 -23 15 -24 21 -24
115 0 100 0 101 28 111 37 14 56 0 63 -47 l6 -39 2 37 c2 64 6 68 77 68 l64 0
0 -72z m170 -35 c0 -110 -6 -133 -34 -133 -40 0 -49 14 -42 66 3 27 9 73 12
102 6 49 8 52 35 52 l29 0 0 -87z m-606 70 c4 -5 29 -8 54 -8 44 0 47 -2 50
-28 7 -59 -68 -90 -118 -49 -19 16 -22 24 -16 55 7 36 15 44 30 30z m2177 -95
c1 -13 2 -43 4 -67 1 -24 0 -54 -3 -67 l-4 -24 -302 0 c-167 0 -305 2 -307 5
-6 5 7 141 15 162 4 10 64 13 301 13 l295 0 1 -22z m655 -13 c3 -19 7 -59 8
-88 l1 -52 -310 0 -310 0 -3 88 -3 87 305 0 305 0 7 -35z m-2750 -110 c21 -32
13 -103 -12 -122 -26 -19 -58 -16 -79 7 -13 15 -16 30 -12 62 10 72 70 103
103 53z m1004 -50 c0 -8 -2 -15 -4 -15 -2 0 -12 -3 -21 -6 -15 -6 -15 -4 -4
15 16 25 29 27 29 6z m-994 -201 c21 -32 12 -40 -51 -48 -58 -7 -80 3 -71 31
15 46 96 57 122 17z m709 12 c37 -16 49 -42 43 -92 -3 -28 -5 -29 -49 -27 -26
0 -57 6 -69 13 -19 10 -21 17 -15 48 3 21 15 45 27 55 24 21 21 20 63 3z
m2387 -13 c3 -14 -20 -29 -100 -65 -56 -27 -107 -48 -112 -48 -6 0 -10 8 -10
18 0 12 30 31 98 64 108 53 119 55 124 31z m-1012 -133 l0 -90 -330 0 -331 0
6 78 c4 42 8 83 10 90 3 9 77 12 325 12 l320 0 0 -90z m701 35 c3 -27 9 -67
13 -87 l8 -38 -341 0 -341 0 0 90 0 90 328 -2 327 -3 6 -50z m-2773 -166 c3
-73 1 -78 -24 -98 -34 -27 -78 -27 -105 0 -19 19 -21 30 -17 89 3 37 8 73 12
79 5 8 30 11 69 9 l62 -3 3 -76z m740 -35 c3 -46 0 -54 -24 -73 -36 -28 -60
-26 -95 8 -22 23 -29 39 -29 69 0 21 3 42 7 46 4 4 37 6 73 4 l65 -3 3 -51z
m-727 -412 c24 -16 64 -51 88 -78 70 -79 78 -119 32 -165 -27 -27 -35 -29
-106 -29 -80 0 -115 12 -149 49 -16 18 -20 37 -20 117 -1 90 0 96 24 114 35
27 79 25 131 -8z m674 12 c40 -16 58 -114 35 -196 -6 -20 -24 -48 -41 -62 -28
-24 -39 -26 -118 -26 -85 0 -120 11 -143 44 -14 20 -8 68 11 100 22 34 118
114 160 133 29 13 71 16 96 7z"/>
<path d="M3216 4013 c-54 -14 -114 -73 -134 -132 -39 -113 95 -235 239 -218
51 6 134 49 144 75 2 7 -12 -1 -33 -18 -103 -83 -259 -60 -322 48 -41 68 -18
150 56 207 29 22 52 29 113 35 75 7 75 7 16 7 -33 1 -69 -2 -79 -4z"/>
<path d="M3390 3990 c19 -12 45 -31 58 -43 12 -11 22 -16 22 -10 0 14 -59 58
-90 67 -19 6 -17 3 10 -14z"/>
<path d="M3244 3981 c-2 -2 -4 -24 -4 -47 l0 -43 -57 -3 -58 -3 0 -45 0 -45
58 -3 57 -3 0 -44 0 -45 50 0 50 0 0 45 0 44 58 3 57 3 0 45 0 45 -55 5 -55 5
-3 43 c-2 23 -8 42 -15 43 -56 3 -79 3 -83 0z"/>
<path d="M3470 3913 c0 -4 5 -15 10 -23 8 -13 10 -13 10 2 0 9 -4 20 -10 23
-5 3 -10 3 -10 -2z"/>
<path d="M3492 3840 c0 -19 2 -27 5 -17 2 9 2 25 0 35 -3 9 -5 1 -5 -18z"/>
<path d="M3476 3784 c-4 -9 -4 -19 -1 -22 2 -3 7 3 11 12 4 9 4 19 1 22 -2 3
-7 -3 -11 -12z"/>
<path d="M1322 3129 c-63 -4 -115 -9 -117 -11 -2 -2 -7 -38 -11 -81 l-7 -77
322 0 321 0 0 90 0 90 -197 -1 c-109 -1 -249 -5 -311 -10z m206 -23 c7 -4 12
-2 12 3 0 6 20 11 45 11 40 0 45 -3 46 -22 1 -17 2 -19 6 -5 6 24 23 22 23 -4
0 -11 5 -17 10 -14 6 3 10 15 10 26 0 10 4 19 9 19 10 0 22 -40 16 -51 -3 -3
-59 -7 -125 -7 -118 -1 -120 -1 -120 22 0 12 2 25 5 27 6 7 49 4 63 -5z m264
-1 c18 -25 8 -43 -24 -41 -28 1 -33 6 -36 29 -3 24 0 27 25 25 15 -1 31 -7 35
-13z m-141 -65 c5 0 9 -12 9 -27 l0 -28 -110 0 -110 0 0 28 c0 26 2 27 55 27
50 0 55 -2 56 -22 l2 -23 4 22 c4 21 40 35 71 26 8 -1 18 -3 23 -3z m141 -2
c15 1 36 -34 26 -43 -4 -4 -75 -8 -110 -6 -23 1 -28 6 -28 25 0 19 6 26 28 29
15 2 36 1 47 -1 11 -3 28 -5 37 -4z"/>
<path d="M1475 3090 c-3 -5 1 -10 10 -10 9 0 13 5 10 10 -3 6 -8 10 -10 10 -2
0 -7 -4 -10 -10z"/>
<path d="M2773 2788 c-27 -13 -39 -46 -23 -62 9 -8 16 -5 30 12 10 12 32 25
49 28 24 5 35 1 57 -21 23 -23 29 -25 41 -13 12 13 10 18 -13 41 -22 22 -36
27 -73 26 -25 0 -56 -5 -68 -11z"/>
<path d="M3670 2787 c-16 -8 -26 -23 -28 -40 -4 -34 13 -35 44 -2 30 33 68 32
100 -2 18 -20 27 -24 36 -15 16 16 -7 58 -36 66 -35 10 -90 6 -116 -7z"/>
<path d="M3108 2539 c-25 -14 -23 -79 3 -124 29 -48 70 -67 157 -73 128 -8
198 34 209 126 9 81 8 82 -186 82 -94 0 -174 -5 -183 -11z m255 -111 c15 -6
26 -16 24 -22 -11 -33 -202 -30 -202 4 0 34 109 45 178 18z"/>
<path d="M2318 1062 c-10 -2 -21 -18 -26 -35 -6 -24 -19 -38 -52 -54 -24 -13
-53 -20 -64 -18 -50 12 -59 -21 -76 -278 -6 -91 -6 -180 -1 -230 13 -119 11
-117 240 -114 152 2 185 5 191 17 4 8 15 29 24 47 13 25 16 63 16 200 0 113
-4 173 -11 180 -7 7 -12 43 -13 81 -2 83 -16 106 -58 97 -19 -5 -35 -2 -46 8
-9 8 -29 17 -44 21 -16 3 -28 11 -28 16 0 6 -13 10 -30 10 -16 0 -30 5 -30 10
0 6 11 10 25 10 15 0 25 6 25 14 0 16 -18 24 -42 18z m60 -187 c23 -26 31 -95
12 -95 -5 0 -10 -6 -10 -13 0 -27 -37 -49 -70 -42 -56 12 -81 109 -40 153 29
31 80 29 108 -3z m126 -254 c10 -11 16 -28 14 -38 -3 -16 -17 -18 -171 -20
-186 -1 -207 1 -207 27 0 40 37 49 196 49 137 1 153 -1 168 -18z"/>
<path d="M2288 869 c-12 -6 -18 -22 -18 -45 0 -53 15 -74 54 -74 28 0 36 5 46
30 9 21 10 41 4 63 -8 26 -15 32 -39 34 -17 2 -38 -2 -47 -8z m67 -40 c10 -45
-21 -63 -58 -34 -18 13 -18 14 0 39 25 35 50 33 58 -5z"/>
</g>
</svg>
