<svg xmlns="http://www.w3.org/2000/svg"  viewBox="0 0 72 72" width="64px" height="64px"><path d="M42.5,14C56.875,14,58,15.125,58,29.5v13C58,56.875,56.875,58,42.5,58h-13C15.125,58,14,56.875,14,42.5v-13	C14,15.125,15.125,14,29.5,14H42.5z M45.616,34.045v-3.79c0,0-2.003,0.01-3.695-1.54c-1.422-1.302-1.54-3.743-1.54-3.743h-3.79	c0,0,0,12.934,0,14.994s-1.793,3.127-3.079,3.127c-0.969,0-3.174-0.76-3.174-3.151c0-2.51,2.535-3.15,3.198-3.15	c0.663,0,0.924,0.142,0.924,0.142v-4c0,0-0.616-0.059-1.066-0.074c-3.825-0.13-6.988,3.303-6.988,7.083	c0,3.193,2.497,7.059,7.059,7.059c4.859,0,7.083-4.052,7.083-7.035c0-2.179,0-7.438,0-7.438s1.398,0.782,2.535,1.137	C44.219,34.021,45.616,34.045,45.616,34.045z"/></svg>